<svg width="24" height="24" viewBox="0 0 24 24" fill="none" xmlns="http://www.w3.org/2000/svg">
<path d="M16.984 0.649452C18.1944 -0.334035 19.9882 -0.200852 20.9191 1.05122C21.3015 1.56576 21.6465 2.10041 22.465 3.12617C24.5136 5.69292 24.5136 9.40953 22.4537 11.9672C20.9331 13.8553 19.3389 15.7605 17.5565 17.5457C15.7743 19.331 13.8723 20.928 11.9873 22.4511C9.43394 24.5145 5.72355 24.5145 3.16107 22.4625C2.09448 21.6084 1.56632 21.2758 1.03505 20.8755C-0.167574 19.9692 -0.334346 18.2443 0.598411 17.0611C1.65746 15.7179 2.88927 14.4524 4.05339 13.2203C4.69901 12.5369 5.77488 12.4951 6.48789 13.1076C7.05108 13.5914 7.42543 13.8863 8.39026 14.7924C11.3214 13.0478 13.0978 11.2466 14.8078 8.36412C13.8991 7.39323 13.6042 7.01733 13.1171 6.44875C12.5062 5.73554 12.5474 4.65981 13.2332 4.01851C14.4476 2.88285 15.6856 1.70441 16.984 0.649452Z" fill="white"/>
</svg>
